<svg xmlns="http://www.w3.org/2000/svg" viewBox="0 0 800 1000" width="800" height="1000">
  <style>
    text { font-family: Arial, sans-serif; font-size: 11px; }
    .label { font-size: 11px; font-weight: bold; }
    .caption { font-size: 10px; }
    .thin { stroke-width: 0.5; }
    .medium { stroke-width: 1.2; }
    .thick { stroke-width: 1.8; }
  </style>

  <!-- Title -->
  <text x="400" y="30" text-anchor="middle" font-size="14" font-weight="bold">FIG. 1 — Exploded Isometric View</text>

  <!-- MASK ASSEMBLY (top) -->
  <!-- Mask frame - single panoramic frameless lens -->
  <path d="M260,165 Q270,110 400,100 Q530,110 540,165 Q545,210 535,250 Q520,290 480,310 Q440,325 400,328 Q360,325 320,310 Q280,290 265,250 Q255,210 260,165 Z" fill="none" stroke="black" class="thick"/>
  <!-- Single panoramic lens (wide, no divider) -->
  <path d="M280,170 Q290,125 400,118 Q510,125 520,170 Q525,205 518,240 Q508,272 475,290 Q445,303 400,305 Q355,303 325,290 Q292,272 282,240 Q275,205 280,170 Z" fill="none" stroke="black" class="medium"/>
  <!-- Nose bridge area integrated within lens (subtle bump, no divider) -->
  <path d="M385,240 Q390,260 400,268 Q410,260 415,240" fill="none" stroke="black" stroke-dasharray="4,2" class="thin"/>
  <!-- Nose pocket (below lens) -->
  <path d="M385,310 Q400,340 415,310" fill="none" stroke="black" class="medium"/>
  <!-- Face seal perimeter (dashed - soft silicone skirt) -->
  <path d="M252,162 Q262,102 400,92 Q538,102 548,162 Q553,212 543,255 Q526,298 484,318 Q444,335 400,338 Q356,335 316,318 Q274,298 257,255 Q247,212 252,162 Z" fill="none" stroke="black" stroke-dasharray="6,3" class="thin"/>
  <!-- Strap attachment points -->
  <circle cx="255" cy="195" r="6" fill="none" stroke="black" class="medium"/>
  <circle cx="545" cy="195" r="6" fill="none" stroke="black" class="medium"/>

  <!-- HEAD STRAP (offset above/right) -->
  <path d="M570,145 Q620,105 640,145 Q660,225 640,265 Q620,305 570,265" fill="none" stroke="black" class="medium"/>
  <!-- Quick-release buckle on strap -->
  <rect x="625" y="180" width="30" height="20" rx="3" fill="none" stroke="black" class="medium"/>
  <line x1="640" y1="180" x2="640" y2="200" stroke="black" class="thin"/>

  <!-- MOUTHPIECE (compact cylindrical, offset left) -->
  <path d="M305,380 Q310,368 330,365 Q350,363 360,370 L362,385 Q358,395 340,398 Q318,398 308,392 Z" fill="none" stroke="black" class="medium"/>
  <!-- Bite flanges -->
  <path d="M315,375 Q332,370 352,373" fill="none" stroke="black" class="thin"/>
  <path d="M315,387 Q332,392 352,389" fill="none" stroke="black" class="thin"/>
  <!-- Connection to tube (dashed = separated in exploded view) -->
  <line x1="362" y1="382" x2="388" y2="420" stroke="black" stroke-dasharray="4,2" class="thin"/>

  <!-- BREATHING TUBE (smooth, not corrugated) -->
  <!-- Smooth tube - outer wall -->
  <path d="M388,420 Q392,450 394,480 Q396,510 398,540 Q400,560 402,580" fill="none" stroke="black" class="medium"/>
  <!-- Smooth tube - inner wall (parallel) -->
  <path d="M412,420 Q410,450 408,480 Q406,510 404,540 Q402,560 402,580" fill="none" stroke="black" class="thin"/>
  <!-- Tube top opening -->
  <ellipse cx="400" cy="420" rx="12" ry="4" fill="none" stroke="black" class="thin"/>

  <!-- 0.5L TANK (bottom, white cylindrical) -->
  <rect x="365" y="680" width="70" height="170" rx="35" fill="none" stroke="black" class="thick"/>
  <!-- Tank markings -->
  <text x="400" y="770" text-anchor="middle" font-size="8">0.5L</text>
  <text x="400" y="785" text-anchor="middle" font-size="7">3000 PSI</text>

  <!-- INTEGRATED VALVE/REGULATOR ASSEMBLY on top of tank -->
  <!-- Tank valve body (sits directly on tank top) -->
  <rect x="382" y="650" width="36" height="30" rx="4" fill="none" stroke="black" class="medium"/>
  <!-- Tank valve connection thread -->
  <line x1="388" y1="680" x2="412" y2="680" stroke="black" class="thin"/>
  <!-- First-stage regulator housing (compact block on top of valve) -->
  <rect x="375" y="620" width="50" height="32" rx="5" fill="none" stroke="black" class="thick"/>
  <!-- Pressure gauge (small circle on side of regulator) -->
  <circle cx="430" cy="636" r="10" fill="none" stroke="black" class="medium"/>
  <line x1="430" y1="630" x2="430" y2="636" stroke="black" class="thin"/>
  <!-- LP hose output port (top of first-stage, connects to tube) -->
  <rect x="393" y="610" width="14" height="12" rx="2" fill="none" stroke="black" class="medium"/>
  <!-- Connection dashed line from regulator to tube -->
  <line x1="400" y1="610" x2="402" y2="580" stroke="black" stroke-dasharray="6,3" class="thin"/>

  <!-- REFERENCE NUMERAL LABELS -->
  <!-- 10 - Mask assembly -->
  <line x1="260" y1="140" x2="220" y2="120" stroke="black" class="thin"/>
  <text x="170" y="124" class="label">10</text>
  <!-- 12 - Panoramic lens -->
  <line x1="285" y1="200" x2="240" y2="200" stroke="black" class="thin"/>
  <text x="195" y="204" class="label">12</text>
  <!-- 14 - Silicone face seal -->
  <line x1="255" y1="240" x2="215" y2="250" stroke="black" class="thin"/>
  <text x="155" y="254" class="label">14</text>
  <!-- 16 - Nose pocket -->
  <line x1="420" y1="330" x2="460" y2="345" stroke="black" class="thin"/>
  <text x="465" y="349" class="label">16</text>
  <!-- 18 - Strap attachment -->
  <line x1="545" y1="185" x2="575" y2="170" stroke="black" class="thin"/>
  <text x="580" y="174" class="label">18</text>
  <!-- 20 - Head strap -->
  <line x1="650" y1="205" x2="680" y2="205" stroke="black" class="thin"/>
  <text x="685" y="209" class="label">20</text>
  <!-- 22 - Quick-release buckle -->
  <line x1="655" y1="190" x2="690" y2="175" stroke="black" class="thin"/>
  <text x="695" y="179" class="label">22</text>
  <!-- 24 - Mouthpiece -->
  <line x1="305" y1="375" x2="260" y2="365" stroke="black" class="thin"/>
  <text x="210" y="369" class="label">24</text>
  <!-- 26 - Breathing tube -->
  <line x1="412" y1="490" x2="455" y2="490" stroke="black" class="thin"/>
  <text x="460" y="494" class="label">26</text>
  <!-- 28 - Regulator body (second stage / integrated) -->
  <line x1="425" y1="636" x2="470" y2="636" stroke="black" class="thin"/>
  <text x="475" y="640" class="label">28</text>
  <!-- 30 - Pressure gauge -->
  <line x1="440" y1="636" x2="475" y2="620" stroke="black" class="thin"/>
  <text x="480" y="618" class="label">30</text>
  <!-- 32 - First-stage regulator -->
  <line x1="375" y1="636" x2="335" y2="636" stroke="black" class="thin"/>
  <text x="285" y="640" class="label">32</text>
  <!-- 34 - Tank valve connection -->
  <line x1="418" y1="665" x2="470" y2="658" stroke="black" class="thin"/>
  <text x="475" y="662" class="label">34</text>
  <!-- 36 - 0.5L tank -->
  <line x1="435" y1="770" x2="470" y2="770" stroke="black" class="thin"/>
  <text x="475" y="774" class="label">36</text>

  <!-- Legend -->
  <text x="50" y="920" class="caption" font-weight="bold">Reference Numerals:</text>
  <text x="50" y="935" class="caption">10 — Mask assembly  |  12 — Panoramic lens  |  14 — Silicone face seal  |  16 — Nose pocket</text>
  <text x="50" y="950" class="caption">18 — Strap attachment points  |  20 — Head strap  |  22 — Quick-release buckle  |  24 — Mouthpiece</text>
  <text x="50" y="965" class="caption">26 — Breathing tube  |  28 — Regulator body  |  30 — Pressure gauge  |  32 — First-stage regulator</text>
  <text x="50" y="980" class="caption">34 — Tank valve connection  |  36 — 0.5L compressed air tank</text>
</svg>