<svg xmlns="http://www.w3.org/2000/svg" viewBox="0 0 800 1000" width="800" height="1000">
  <style>
    text { font-family: Arial, sans-serif; font-size: 11px; }
    .label { font-size: 11px; font-weight: bold; }
    .caption { font-size: 10px; }
    .thin { stroke-width: 0.5; }
    .medium { stroke-width: 1.2; }
    .thick { stroke-width: 1.8; }
  </style>
  <text x="400" y="30" text-anchor="middle" font-size="14" font-weight="bold">FIG. 1 — Front View of HydroHarness (Worn by User)</text>

  <!-- User torso outline (dashed - not part of invention) -->
  <path d="M300,100 Q400,80 500,100 L530,200 Q540,350 520,500 L480,550 Q400,570 320,550 L280,500 Q260,350 270,200 Z" fill="none" stroke="black" stroke-dasharray="8,4" class="medium"/>
  <!-- Shoulders -->
  <path d="M300,100 Q250,110 220,160" fill="none" stroke="black" stroke-dasharray="8,4" class="thin"/>
  <path d="M500,100 Q550,110 580,160" fill="none" stroke="black" stroke-dasharray="8,4" class="thin"/>

  <!-- WAIST BELT -->
  <path d="M220,380 L340,370 L400,368 L460,370 L580,380" fill="none" stroke="black" class="thick"/>
  <path d="M220,408 L340,398 L400,396 L460,398 L580,408" fill="none" stroke="black" class="thick"/>
  <!-- Belt webbing pattern -->
  <line x1="250" y1="385" x2="250" y2="403" stroke="black" class="thin"/>
  <line x1="300" y1="377" x2="300" y2="395" stroke="black" class="thin"/>
  <line x1="500" y1="377" x2="500" y2="395" stroke="black" class="thin"/>
  <line x1="550" y1="385" x2="550" y2="403" stroke="black" class="thin"/>

  <!-- Neoprene comfort padding (indicated by cross-hatch interior) -->
  <line x1="340" y1="372" x2="345" y2="395" stroke="gray" class="thin"/>
  <line x1="360" y1="371" x2="365" y2="394" stroke="gray" class="thin"/>
  <line x1="440" y1="371" x2="445" y2="394" stroke="gray" class="thin"/>
  <line x1="460" y1="372" x2="465" y2="395" stroke="gray" class="thin"/>

  <!-- QUICK-RELEASE BUCKLE (center front) -->
  <rect x="382" y="370" width="36" height="26" rx="4" fill="none" stroke="black" class="thick"/>
  <line x1="400" y1="370" x2="400" y2="396" stroke="black" class="medium"/>
  <circle cx="393" cy="383" r="3" fill="none" stroke="black" class="thin"/>
  <circle cx="407" cy="383" r="3" fill="none" stroke="black" class="thin"/>

  <!-- D-RING attachment points -->
  <path d="M320,375 Q310,370 305,378 Q300,386 310,390 L320,393" fill="none" stroke="black" class="medium"/>
  <path d="M480,375 Q490,370 495,378 Q500,386 490,390 L480,393" fill="none" stroke="black" class="medium"/>

  <!-- LEFT TANK CRADLE -->
  <rect x="200" y="400" width="75" height="50" rx="8" fill="none" stroke="black" class="thick"/>
  <!-- Snap-lock latch -->
  <rect x="225" y="395" width="25" height="10" rx="2" fill="none" stroke="black" class="medium"/>
  <!-- Anti-rotation ridge -->
  <line x1="215" y1="415" x2="215" y2="440" stroke="black" class="medium"/>
  <line x1="260" y1="415" x2="260" y2="440" stroke="black" class="medium"/>
  <!-- Belt mounting clips -->
  <rect x="210" y="390" width="12" height="12" rx="1" fill="none" stroke="black" class="thin"/>
  <rect x="253" y="390" width="12" height="12" rx="1" fill="none" stroke="black" class="thin"/>

  <!-- LEFT TANK (in cradle) -->
  <rect x="215" y="445" width="45" height="140" rx="22" fill="none" stroke="black" class="thick"/>
  <rect x="228" y="432" width="20" height="16" rx="3" fill="none" stroke="black" class="medium"/>
  <text x="237" y="520" text-anchor="middle" font-size="7">0.5L</text>

  <!-- RIGHT TANK CRADLE -->
  <rect x="525" y="400" width="75" height="50" rx="8" fill="none" stroke="black" class="thick"/>
  <rect x="550" y="395" width="25" height="10" rx="2" fill="none" stroke="black" class="medium"/>
  <line x1="540" y1="415" x2="540" y2="440" stroke="black" class="medium"/>
  <line x1="585" y1="415" x2="585" y2="440" stroke="black" class="medium"/>
  <rect x="535" y="390" width="12" height="12" rx="1" fill="none" stroke="black" class="thin"/>
  <rect x="578" y="390" width="12" height="12" rx="1" fill="none" stroke="black" class="thin"/>

  <!-- RIGHT TANK (in cradle) -->
  <rect x="540" y="445" width="45" height="140" rx="22" fill="none" stroke="black" class="thick"/>
  <rect x="553" y="432" width="20" height="16" rx="3" fill="none" stroke="black" class="medium"/>
  <text x="562" y="520" text-anchor="middle" font-size="7">0.5L</text>

  <!-- Y-VALVE MANIFOLD (between tanks, connected to both) -->
  <rect x="370" y="440" width="60" height="30" rx="6" fill="none" stroke="black" class="thick"/>
  <text x="400" y="460" text-anchor="middle" font-size="8" font-weight="bold">Y-VALVE</text>
  <!-- Input lines from tanks -->
  <line x1="248" y1="440" x2="370" y2="452" stroke="black" class="medium"/>
  <line x1="553" y1="440" x2="430" y2="452" stroke="black" class="medium"/>
  <!-- Output up to breathing tube -->
  <path d="M400,440 L400,410 Q400,390 400,360 L400,300 Q400,280 400,260" fill="none" stroke="black" class="medium"/>
  <!-- Tube label -->
  <text x="415" y="310" font-size="8" fill="gray">to regulator</text>

  <!-- THIGH STRAP (optional - shown on right) -->
  <path d="M520,408 L510,500 Q505,540 510,560 L530,570 Q550,575 560,560 L565,540 Q570,500 560,460" fill="none" stroke="black" stroke-dasharray="6,3" class="medium"/>
  <!-- Thigh strap buckle -->
  <rect x="518" y="555" width="20" height="12" rx="2" fill="none" stroke="black" class="medium"/>

  <!-- REFERENCE LABELS -->
  <line x1="400" y1="396" x2="440" y2="420" stroke="black" class="thin"/>
  <text x="445" y="420" class="label">100</text>

  <line x1="220" y1="394" x2="165" y2="385" stroke="black" class="thin"/>
  <text x="100" y="389" class="label">102</text>

  <line x1="237" y1="395" x2="237" y2="370" stroke="black" class="thin"/>
  <text x="228" y="365" class="label">104</text>

  <line x1="315" y1="382" x2="315" y2="360" stroke="black" class="thin"/>
  <text x="308" y="355" class="label">106</text>

  <line x1="200" y1="425" x2="165" y2="435" stroke="black" class="thin"/>
  <text x="100" y="439" class="label">108</text>

  <line x1="237" y1="500" x2="175" y2="500" stroke="black" class="thin"/>
  <text x="125" y="504" class="label">110</text>

  <line x1="400" y1="470" x2="440" y2="490" stroke="black" class="thin"/>
  <text x="445" y="494" class="label">112</text>

  <line x1="510" y1="560" x2="475" y2="570" stroke="black" class="thin"/>
  <text x="440" y="574" class="label">114</text>

  <line x1="310" y1="380" x2="290" y2="365" stroke="black" class="thin"/>
  <text x="265" y="360" class="label">116</text>

  <!-- Legend -->
  <text x="50" y="700" class="caption" font-weight="bold">Reference Numerals:</text>
  <text x="50" y="715" class="caption">100 — Quick-release belt buckle  |  102 — Waist belt (50mm webbing)  |  104 — Snap-lock latch</text>
  <text x="50" y="730" class="caption">106 — D-ring attachment  |  108 — Tank cradle  |  110 — 0.5L tank  |  112 — Y-valve manifold</text>
  <text x="50" y="745" class="caption">114 — Thigh strap (optional)  |  116 — Neoprene comfort padding</text>
</svg>