<svg xmlns="http://www.w3.org/2000/svg" viewBox="0 0 800 900" width="800" height="900">
  <style>text{font-family:Arial,sans-serif;font-size:11px}.label{font-size:11px;font-weight:bold}.caption{font-size:10px}.t{stroke-width:0.5}.m{stroke-width:1.2}.k{stroke-width:1.8}</style>
  <text x="400" y="25" text-anchor="middle" font-size="14" font-weight="bold">FIG. 1 — Front Isometric View of DRIFT Helmet</text>

  <!-- Helmet shell — smooth perfectly round dome, space-helmet shape -->
  <path d="M400,75 C500,75 570,120 590,200 C610,280 610,370 590,430 C570,490 530,540 480,565 C450,578 425,582 400,583 C375,582 350,578 320,565 C270,540 230,490 210,430 C190,370 190,280 210,200 C230,120 300,75 400,75 Z" fill="none" stroke="black" class="k"/>

  <!-- Visor — MASSIVE wrap-around, covering ~70% of front face, forehead to chin -->
  <path d="M400,100 C490,100 545,140 565,210 C580,270 580,340 570,400 C558,455 530,500 490,530 C460,548 430,555 400,558 C370,555 340,548 310,530 C270,500 242,455 230,400 C220,340 220,270 235,210 C255,140 310,100 400,100 Z" fill="none" stroke="black" class="m"/>
  <!-- Visor gasket/frame line -->
  <path d="M400,105 C485,105 538,143 558,210 C572,268 572,335 563,395 C552,448 525,492 488,522 C458,540 428,548 400,550 C372,548 342,540 312,522 C275,492 248,448 237,395 C228,335 228,268 242,210 C262,143 315,105 400,105 Z" fill="none" stroke="gray" stroke-dasharray="4,3" class="t"/>

  <!-- Internal mouthpiece visible through visor -->
  <rect x="388" y="440" width="24" height="12" rx="4" fill="none" stroke="black" class="m"/>
  <line x1="400" y1="452" x2="400" y2="475" stroke="black" class="m"/>
  <text x="400" y="470" text-anchor="middle" font-size="7" fill="gray">mouthpiece</text>

  <!-- Camera mount (top center of dome) -->
  <rect x="383" y="63" width="34" height="16" rx="4" fill="none" stroke="black" class="k"/>
  <line x1="392" y1="63" x2="392" y2="48" stroke="black" class="m"/>
  <line x1="408" y1="63" x2="408" y2="48" stroke="black" class="m"/>
  <rect x="387" y="38" width="26" height="12" rx="3" fill="none" stroke="black" class="m"/>

  <!-- Side-mount tank (right side) — cylindrical 0.5L tank -->
  <rect x="600" y="210" width="42" height="140" rx="21" fill="none" stroke="black" class="k"/>
  <!-- Pressure gauge on top of tank -->
  <circle cx="621" cy="200" r="12" fill="none" stroke="black" class="m"/>
  <line x1="621" y1="193" x2="621" y2="200" stroke="black" class="t"/>
  <line x1="621" y1="200" x2="626" y2="196" stroke="black" class="t"/>
  <!-- Tank valve assembly on top -->
  <rect x="610" y="195" width="22" height="18" rx="3" fill="none" stroke="black" class="m"/>

  <!-- Tank cradle/bracket on helmet side -->
  <path d="M590,230 C585,225 582,240 582,260 L582,320 C582,340 585,355 590,350" fill="none" stroke="black" class="m"/>
  <path d="M590,230 L595,230" fill="none" stroke="black" class="m"/>
  <path d="M590,350 L595,350" fill="none" stroke="black" class="m"/>

  <!-- Air tube from tank valve, looping down and into bulkhead -->
  <path d="M615,213 C615,230 630,370 630,380 C630,400 610,410 595,400 C585,395 578,380 575,365" fill="none" stroke="black" class="m"/>

  <!-- Bulkhead fitting where tube enters helmet -->
  <rect x="565" y="350" width="20" height="20" rx="3" fill="none" stroke="black" class="k"/>

  <!-- Exhaust diffuser at bottom chin area -->
  <path d="M365,570 Q400,580 435,570" fill="none" stroke="black" class="m"/>
  <rect x="368" y="572" width="64" height="12" rx="4" fill="none" stroke="black" class="m"/>
  <!-- Diffuser holes -->
  <circle cx="378" cy="578" r="2" fill="black"/>
  <circle cx="390" cy="578" r="2" fill="black"/>
  <circle cx="400" cy="578" r="2" fill="black"/>
  <circle cx="410" cy="578" r="2" fill="black"/>
  <circle cx="422" cy="578" r="2" fill="black"/>

  <!-- Comms port (left side) -->
  <circle cx="215" cy="310" r="10" fill="none" stroke="black" class="m"/>
  <circle cx="215" cy="310" r="6" fill="none" stroke="black" class="t"/>

  <!-- Labels -->
  <line x1="240" y1="110" x2="200" y2="95" stroke="black" class="t"/>
  <text x="140" y="99" class="label">200</text>
  <line x1="540" y1="300" x2="555" y2="290" stroke="black" class="t"/>
  <text x="540" y="285" class="label">202</text>
  <line x1="400" y1="38" x2="440" y2="33" stroke="black" class="t"/>
  <text x="445" y="36" class="label">204</text>
  <line x1="642" y1="280" x2="665" y2="270" stroke="black" class="t"/>
  <text x="670" y="274" class="label">206</text>
  <line x1="565" y1="360" x2="540" y2="345" stroke="black" class="t"/>
  <text x="500" y="340" class="label">208</text>
  <line x1="400" y1="440" x2="340" y2="430" stroke="black" class="t"/>
  <text x="270" y="434" class="label">252</text>
  <line x1="435" y1="578" x2="475" y2="580" stroke="black" class="t"/>
  <text x="480" y="584" class="label">212</text>
  <line x1="215" y1="320" x2="180" y2="330" stroke="black" class="t"/>
  <text x="120" y="334" class="label">214</text>
  <line x1="585" y1="290" x2="555" y2="295" stroke="black" class="t"/>
  <text x="518" y="305" class="label">216</text>
  <line x1="621" y1="188" x2="660" y2="175" stroke="black" class="t"/>
  <text x="665" y="179" class="label">242</text>

  <text x="50" y="700" class="caption" font-weight="bold">Reference Numerals:</text>
  <text x="50" y="715" class="caption">200 — Helmet shell (smooth dome)  |  202 — Full-face wrap-around visor  |  204 — GoPro camera mount  |  206 — 0.5L side-mount tank</text>
  <text x="50" y="730" class="caption">208 — Sealed bulkhead fitting  |  212 — Acoustic exhaust diffuser  |  214 — Communications port  |  216 — Tank cradle</text>
  <text x="50" y="745" class="caption">242 — Pressure gauge/valve assembly  |  252 — Internal mouthpiece</text>
</svg>