<svg xmlns="http://www.w3.org/2000/svg" viewBox="0 0 800 800" width="800" height="800">
  <style>
    text { font-family: Arial, sans-serif; font-size: 11px; }
    .label { font-size: 11px; font-weight: bold; }
    .caption { font-size: 10px; }
    .thin { stroke-width: 0.5; }
    .medium { stroke-width: 1.2; }
    .thick { stroke-width: 1.8; }
    .hatch { stroke-width: 0.4; stroke: gray; }
  </style>
  <text x="400" y="30" text-anchor="middle" font-size="14" font-weight="bold">FIG. 2 — Exploded View of Tank Cradle Assembly</text>

  <!-- BELT SECTION (top, shown as a horizontal band, separated) -->
  <rect x="150" y="70" width="500" height="35" rx="3" fill="none" stroke="black" class="thick"/>
  <!-- Belt webbing texture -->
  <line x1="200" y1="75" x2="200" y2="100" stroke="black" class="thin"/>
  <line x1="300" y1="75" x2="300" y2="100" stroke="black" class="thin"/>
  <line x1="500" y1="75" x2="500" y2="100" stroke="black" class="thin"/>
  <line x1="600" y1="75" x2="600" y2="100" stroke="black" class="thin"/>
  <!-- Belt threading slots where loop attaches -->
  <rect x="340" y="95" width="50" height="10" rx="2" fill="none" stroke="black" class="medium"/>
  <rect x="410" y="95" width="50" height="10" rx="2" fill="none" stroke="black" class="medium"/>
  <!-- Dashed assembly lines from belt down to loop -->
  <line x1="365" y1="105" x2="340" y2="170" stroke="black" stroke-dasharray="6,3" class="thin"/>
  <line x1="435" y1="105" x2="460" y2="170" stroke="black" stroke-dasharray="6,3" class="thin"/>

  <!-- FABRIC WEBBING LOOP (main cradle piece — U-shaped strap) -->
  <!-- The loop is a single continuous strap that threads through belt slots -->
  <!-- Left side of strap going up to belt -->
  <path d="M310,180 L310,200" fill="none" stroke="black" class="thick"/>
  <!-- U-shape: down left side, across bottom, up right side -->
  <path d="M310,200 L310,480 Q310,510 340,510 L460,510 Q490,510 490,480 L490,200" fill="none" stroke="black" class="thick"/>
  <!-- Right side going up to belt -->
  <path d="M490,200 L490,180" fill="none" stroke="black" class="thick"/>
  <!-- Inner edge of fabric strap (showing strap width ~25mm) -->
  <path d="M335,200 L335,470 Q335,490 355,490 L445,490 Q465,490 465,470 L465,200" fill="none" stroke="black" class="medium"/>
  <!-- Fabric texture — stitching lines along strap -->
  <line x1="315" y1="220" x2="315" y2="470" stroke="gray" class="thin" stroke-dasharray="3,2"/>
  <line x1="485" y1="220" x2="485" y2="470" stroke="gray" class="thin" stroke-dasharray="3,2"/>
  <!-- Double-stitch reinforcement at top where strap meets belt -->
  <line x1="310" y1="205" x2="335" y2="205" stroke="black" class="thin"/>
  <line x1="310" y1="210" x2="335" y2="210" stroke="black" class="thin"/>
  <line x1="465" y1="205" x2="490" y2="205" stroke="black" class="thin"/>
  <line x1="465" y1="210" x2="490" y2="210" stroke="black" class="thin"/>
  <!-- Cross-stitch reinforcement at bottom curve -->
  <line x1="340" y1="495" x2="355" y2="510" class="hatch"/>
  <line x1="355" y1="495" x2="370" y2="510" class="hatch"/>
  <line x1="430" y1="495" x2="445" y2="510" class="hatch"/>
  <line x1="445" y1="495" x2="460" y2="510" class="hatch"/>

  <!-- ELASTIC RETENTION STRAP (crosses front of loop to hold tank in) -->
  <path d="M310,300 L490,300" fill="none" stroke="black" class="medium" stroke-dasharray="8,3"/>
  <path d="M310,310 L490,310" fill="none" stroke="black" class="medium" stroke-dasharray="8,3"/>
  <!-- Snap button on retention strap -->
  <circle cx="490" cy="305" r="6" fill="none" stroke="black" class="medium"/>
  <circle cx="490" cy="305" r="2" fill="black"/>

  <!-- TANK (separated below, showing insertion path) -->
  <rect x="355" y="580" width="90" height="180" rx="45" fill="none" stroke="black" class="thick"/>
  <!-- Tank valve top -->
  <rect x="380" y="562" width="40" height="22" rx="4" fill="none" stroke="black" class="medium"/>
  <line x1="380" y1="572" x2="420" y2="572" stroke="black" class="thin"/>
  <!-- Pressure gauge -->
  <circle cx="400" cy="568" r="6" fill="none" stroke="black" class="thin"/>
  <line x1="400" y1="565" x2="404" y2="562" stroke="black" class="thin"/>
  <!-- Tank neck ring -->
  <ellipse cx="400" cy="595" rx="50" ry="8" fill="none" stroke="black" class="medium"/>
  <text x="400" y="680" text-anchor="middle" font-size="9">0.5L / 3000 PSI</text>

  <!-- Dashed assembly arrow (tank slides UP into loop) -->
  <line x1="400" y1="560" x2="400" y2="520" stroke="black" stroke-dasharray="6,3" class="thin"/>
  <path d="M395,525 L400,513 L405,525" fill="none" stroke="black" class="thin"/>

  <!-- REFERENCE LABELS -->
  <line x1="400" y1="70" x2="400" y2="50" stroke="black" class="thin"/>
  <text x="375" y="47" class="label">120 — Belt</text>

  <line x1="310" y1="350" x2="250" y2="350" stroke="black" class="thin"/>
  <text x="115" y="354" class="label">108 — Webbing loop</text>

  <line x1="490" y1="305" x2="550" y2="305" stroke="black" class="thin"/>
  <text x="555" y="309" class="label">104 — Retention strap</text>

  <line x1="335" y1="210" x2="265" y2="218" stroke="black" class="thin"/>
  <text x="135" y="222" class="label">124 — Stitch reinforcement</text>

  <line x1="400" y1="595" x2="480" y2="595" stroke="black" class="thin"/>
  <text x="485" y="599" class="label">126 — Tank neck ring</text>

  <line x1="445" y1="680" x2="510" y2="690" stroke="black" class="thin"/>
  <text x="515" y="694" class="label">110 — 0.5L tank</text>

  <line x1="370" y1="100" x2="330" y2="130" stroke="black" class="thin"/>
  <text x="220" y="140" class="label">122 — Belt threading slot</text>

  <!-- Legend -->
  <text x="50" y="730" class="caption" font-weight="bold">Reference Numerals:</text>
  <text x="50" y="745" class="caption">104 — Elastic retention strap (snap closure)  |  108 — Webbing loop cradle (fabric)  |  110 — 0.5L tank</text>
  <text x="50" y="760" class="caption">120 — Waist belt (50mm webbing)  |  122 — Belt threading slot  |  124 — Stitch reinforcement  |  126 — Tank neck ring</text>
</svg>