<svg xmlns="http://www.w3.org/2000/svg" viewBox="0 0 800 700" width="800" height="700">
  <style>
    text { font-family: Arial, sans-serif; font-size: 11px; }
    .label { font-size: 11px; font-weight: bold; }
    .caption { font-size: 10px; }
    .thin { stroke-width: 0.5; }
    .medium { stroke-width: 1.2; }
    .thick { stroke-width: 1.8; }
    .hatch { stroke-width: 0.4; stroke: black; }
  </style>

  <text x="400" y="30" text-anchor="middle" font-size="14" font-weight="bold">FIG. 3 — Mouthpiece Regulator Assembly (Cross-Section Detail)</text>

  <!-- REGULATOR BODY — cross section -->
  <!-- Outer housing -->
  <path d="M200,250 Q200,180 280,160 L520,160 Q600,180 600,250 L600,400 Q600,460 520,480 L280,480 Q200,460 200,400 Z" fill="none" stroke="black" class="thick"/>

  <!-- Diaphragm housing dome (top) -->
  <path d="M250,160 Q400,80 550,160" fill="none" stroke="black" class="thick"/>
  <!-- Diaphragm membrane -->
  <path d="M270,160 Q400,110 530,160" fill="none" stroke="black" stroke-dasharray="6,3" class="medium"/>
  <!-- Cross-hatch the diaphragm dome interior -->
  <line x1="290" y1="155" x2="310" y2="130" class="hatch"/>
  <line x1="330" y1="155" x2="350" y2="120" class="hatch"/>
  <line x1="370" y1="155" x2="390" y2="110" class="hatch"/>
  <line x1="410" y1="155" x2="420" y2="112" class="hatch"/>
  <line x1="450" y1="155" x2="455" y2="120" class="hatch"/>
  <line x1="490" y1="155" x2="490" y2="130" class="hatch"/>

  <!-- Demand lever mechanism inside -->
  <line x1="400" y1="145" x2="400" y2="220" stroke="black" class="medium"/>
  <circle cx="400" cy="220" r="8" fill="none" stroke="black" class="medium"/>
  <!-- Spring -->
  <path d="M395,228 Q390,238 395,248 Q400,258 395,268 Q390,278 395,288" fill="none" stroke="black" class="thin"/>

  <!-- Valve seat -->
  <rect x="380" y="290" width="40" height="15" rx="2" fill="none" stroke="black" class="medium"/>
  <!-- Hatching for valve seat (solid material) -->
  <line x1="383" y1="293" x2="393" y2="303" class="hatch"/>
  <line x1="393" y1="293" x2="403" y2="303" class="hatch"/>
  <line x1="403" y1="293" x2="413" y2="303" class="hatch"/>

  <!-- Air flow chamber below valve -->
  <rect x="360" y="310" width="80" height="50" fill="none" stroke="black" class="medium"/>
  <!-- Flow arrows -->
  <path d="M340,335 L360,335" fill="none" stroke="black" class="thin" marker-end="url(#arrow)"/>
  <path d="M440,335 L460,335" fill="none" stroke="black" class="thin" marker-end="url(#arrow)"/>
  <defs><marker id="arrow" markerWidth="8" markerHeight="6" refX="8" refY="3" orient="auto"><path d="M0,0 L8,3 L0,6" fill="none" stroke="black" stroke-width="0.8"/></marker></defs>

  <!-- PURGE BUTTON (front/bottom) -->
  <circle cx="400" cy="450" r="25" fill="none" stroke="black" class="thick"/>
  <circle cx="400" cy="450" r="20" fill="none" stroke="black" class="medium"/>
  <!-- Spring behind purge -->
  <path d="M400,425 Q395,418 400,411 Q405,404 400,397 Q395,390 400,383" fill="none" stroke="black" class="thin"/>

  <!-- LP HOSE CONNECTION (right side) -->
  <rect x="600" y="300" width="80" height="30" rx="5" fill="none" stroke="black" class="medium"/>
  <!-- Hose barb threads -->
  <line x1="680" y1="305" x2="695" y2="305" stroke="black" class="thin"/>
  <line x1="680" y1="310" x2="698" y2="310" stroke="black" class="thin"/>
  <line x1="680" y1="315" x2="698" y2="315" stroke="black" class="thin"/>
  <line x1="680" y1="320" x2="698" y2="320" stroke="black" class="thin"/>
  <line x1="680" y1="325" x2="695" y2="325" stroke="black" class="thin"/>
  <!-- Hose -->
  <path d="M698,315 L760,315" fill="none" stroke="black" class="medium"/>

  <!-- MOUTHPIECE (left side, extended) -->
  <path d="M200,340 L140,340 Q100,340 90,355 Q80,370 85,385 L85,395 Q80,410 90,420 Q100,430 140,430 L200,430" fill="none" stroke="black" class="thick"/>
  <!-- Bite tabs (upper) -->
  <path d="M130,345 L130,360 Q120,360 120,352 Q120,345 130,345" fill="none" stroke="black" class="medium"/>
  <!-- Bite tabs (lower) -->
  <path d="M130,415 L130,425 Q120,425 120,420 Q120,415 130,415" fill="none" stroke="black" class="medium"/>
  <!-- Lip flange -->
  <path d="M95,350 Q70,360 65,385 Q70,410 95,420" fill="none" stroke="black" class="medium"/>
  <!-- Air passage through mouthpiece -->
  <rect x="100" y="370" width="100" height="30" fill="none" stroke="black" stroke-dasharray="4,2" class="thin"/>

  <!-- TUBE CONNECTION (top of mouthpiece area) -->
  <circle cx="200" cy="310" r="15" fill="none" stroke="black" class="medium"/>
  <circle cx="200" cy="310" r="10" fill="none" stroke="black" class="thin"/>

  <!-- REFERENCE LABELS -->
  <line x1="400" y1="80" x2="500" y2="60" stroke="black" class="thin"/>
  <text x="505" y="64" class="label">40 — Diaphragm</text>

  <line x1="400" y1="220" x2="500" y2="210" stroke="black" class="thin"/>
  <text x="505" y="214" class="label">42 — Demand lever</text>

  <line x1="400" y1="297" x2="500" y2="285" stroke="black" class="thin"/>
  <text x="505" y="289" class="label">44 — Valve seat</text>

  <line x1="400" y1="450" x2="500" y2="460" stroke="black" class="thin"/>
  <text x="505" y="464" class="label">30 — Purge button</text>

  <line x1="640" y1="300" x2="640" y2="275" stroke="black" class="thin"/>
  <text x="610" y="270" class="label">46 — LP hose port</text>

  <line x1="90" y1="385" x2="50" y2="385" stroke="black" class="thin"/>
  <text x="10" y="379" class="label">24 — Mouthpiece</text>

  <line x1="120" y1="352" x2="50" y2="340" stroke="black" class="thin"/>
  <text x="10" y="337" class="label">48 — Bite flanges</text>

  <line x1="75" y1="385" x2="50" y2="410" stroke="black" class="thin"/>
  <text x="10" y="418" class="label">50 — Lip flange</text>

  <line x1="200" y1="310" x2="160" y2="280" stroke="black" class="thin"/>
  <text x="80" y="275" class="label">52 — Tube connector</text>

  <line x1="400" y1="335" x2="500" y2="340" stroke="black" class="thin"/>
  <text x="505" y="344" class="label">54 — Air flow chamber</text>

  <!-- Legend -->
  <text x="50" y="580" class="caption" font-weight="bold">Reference Numerals:</text>
  <text x="50" y="595" class="caption">24 — Mouthpiece  |  30 — Purge button  |  40 — Diaphragm  |  42 — Demand lever  |  44 — Valve seat</text>
  <text x="50" y="610" class="caption">46 — LP hose port  |  48 — Bite flanges  |  50 — Lip flange  |  52 — Tube connector  |  54 — Air flow chamber</text>
</svg>