<svg xmlns="http://www.w3.org/2000/svg" viewBox="0 0 800 600" width="800" height="600">
  <style>
    text { font-family: Arial, sans-serif; font-size: 11px; }
    .label { font-size: 11px; font-weight: bold; }
    .caption { font-size: 10px; }
    .thin { stroke-width: 0.5; }
    .medium { stroke-width: 1.2; }
    .thick { stroke-width: 1.8; }
    .hatch { stroke-width: 0.4; stroke: gray; }
  </style>
  <text x="400" y="30" text-anchor="middle" font-size="14" font-weight="bold">FIG. 3 — Cross-Section of Y-Valve Manifold</text>

  <!-- MANIFOLD BODY (cross section - outer wall) -->
  <path d="M150,200 L150,350 Q150,380 180,380 L620,380 Q650,380 650,350 L650,200 Q650,170 620,170 L180,170 Q150,170 150,200 Z" fill="none" stroke="black" class="thick"/>

  <!-- Cross-hatch material (brass body) -->
  <line x1="155" y1="180" x2="175" y2="200" class="hatch"/>
  <line x1="155" y1="200" x2="175" y2="220" class="hatch"/>
  <line x1="155" y1="220" x2="175" y2="240" class="hatch"/>
  <line x1="625" y1="180" x2="645" y2="200" class="hatch"/>
  <line x1="625" y1="200" x2="645" y2="220" class="hatch"/>
  <line x1="625" y1="220" x2="645" y2="240" class="hatch"/>
  <line x1="155" y1="320" x2="175" y2="340" class="hatch"/>
  <line x1="155" y1="340" x2="175" y2="360" class="hatch"/>
  <line x1="625" y1="320" x2="645" y2="340" class="hatch"/>
  <line x1="625" y1="340" x2="645" y2="360" class="hatch"/>

  <!-- LEFT INPUT PORT (Tank 1) -->
  <rect x="80" y="250" width="70" height="40" rx="4" fill="none" stroke="black" class="thick"/>
  <!-- Thread lines -->
  <line x1="85" y1="258" x2="95" y2="258" stroke="black" class="thin"/>
  <line x1="85" y1="265" x2="95" y2="265" stroke="black" class="thin"/>
  <line x1="85" y1="272" x2="95" y2="272" stroke="black" class="thin"/>
  <line x1="85" y1="279" x2="95" y2="279" stroke="black" class="thin"/>
  <!-- Internal passage left -->
  <rect x="150" y="258" width="130" height="24" fill="none" stroke="black" class="medium"/>

  <!-- LEFT CHECK VALVE -->
  <path d="M280,258 L280,282" stroke="black" class="thick"/>
  <path d="M280,258 L300,270 L280,282" fill="none" stroke="black" class="medium"/>
  <circle cx="290" cy="270" r="3" fill="black"/>
  <!-- Spring -->
  <path d="M300,262 Q305,265 300,268 Q295,271 300,274 Q305,277 300,280" fill="none" stroke="black" class="thin"/>

  <!-- CENTRAL MERGE CHAMBER -->
  <rect x="310" y="240" width="180" height="60" rx="8" fill="none" stroke="black" class="thick"/>
  <!-- Flow arrows -->
  <defs><marker id="arr" markerWidth="8" markerHeight="6" refX="8" refY="3" orient="auto"><path d="M0,0 L8,3 L0,6" fill="none" stroke="black" stroke-width="0.8"/></marker></defs>
  <line x1="305" y1="270" x2="310" y2="270" stroke="black" class="medium" marker-end="url(#arr)"/>
  <line x1="495" y1="270" x2="490" y2="270" stroke="black" class="medium" marker-end="url(#arr)"/>

  <!-- RIGHT CHECK VALVE -->
  <path d="M520,258 L520,282" stroke="black" class="thick"/>
  <path d="M520,282 L500,270 L520,258" fill="none" stroke="black" class="medium"/>
  <circle cx="510" cy="270" r="3" fill="black"/>
  <path d="M500,262 Q495,265 500,268 Q505,271 500,274 Q495,277 500,280" fill="none" stroke="black" class="thin"/>

  <!-- RIGHT INPUT PORT (Tank 2) -->
  <rect x="650" y="250" width="70" height="40" rx="4" fill="none" stroke="black" class="thick"/>
  <line x1="705" y1="258" x2="715" y2="258" stroke="black" class="thin"/>
  <line x1="705" y1="265" x2="715" y2="265" stroke="black" class="thin"/>
  <line x1="705" y1="272" x2="715" y2="272" stroke="black" class="thin"/>
  <line x1="705" y1="279" x2="715" y2="279" stroke="black" class="thin"/>
  <!-- Internal passage right -->
  <rect x="520" y="258" width="130" height="24" fill="none" stroke="black" class="medium"/>

  <!-- SINGLE OUTPUT PORT (top) -->
  <rect x="375" y="130" width="50" height="40" rx="4" fill="none" stroke="black" class="thick"/>
  <!-- Thread lines -->
  <line x1="380" y1="135" x2="420" y2="135" stroke="black" class="thin"/>
  <line x1="380" y1="142" x2="420" y2="142" stroke="black" class="thin"/>
  <!-- Passage from merge chamber to output -->
  <rect x="388" y="170" width="24" height="70" fill="none" stroke="black" class="medium"/>
  <!-- Flow arrow up -->
  <line x1="400" y1="250" x2="400" y2="175" stroke="black" class="medium" marker-end="url(#arr)"/>
  <text x="430" y="220" font-size="9" fill="gray">to regulator</text>

  <!-- REFERENCE LABELS -->
  <line x1="80" y1="270" x2="50" y2="270" stroke="black" class="thin"/>
  <text x="10" y="265" class="label">130</text>

  <line x1="290" y1="255" x2="290" y2="225" stroke="black" class="thin"/>
  <text x="275" y="220" class="label">132</text>

  <line x1="400" y1="270" x2="400" y2="310" stroke="black" class="thin"/>
  <text x="385" y="325" class="label">134</text>

  <line x1="510" y1="255" x2="510" y2="225" stroke="black" class="thin"/>
  <text x="495" y="220" class="label">132</text>

  <line x1="720" y1="270" x2="750" y2="270" stroke="black" class="thin"/>
  <text x="755" y="274" class="label">136</text>

  <line x1="400" y1="130" x2="440" y2="110" stroke="black" class="thin"/>
  <text x="445" y="114" class="label">138</text>

  <!-- Legend -->
  <text x="50" y="450" class="caption" font-weight="bold">Reference Numerals:</text>
  <text x="50" y="465" class="caption">130 — Left input port (M18×1.5 thread, Tank 1)  |  132 — Check valves (×2)  |  134 — Central merge chamber</text>
  <text x="50" y="480" class="caption">136 — Right input port (M18×1.5 thread, Tank 2)  |  138 — Single output port (to LP hose/regulator)</text>
  <text x="50" y="500" class="caption">Flow direction: Both tanks feed into central chamber → single output to breathing apparatus</text>
  <text x="50" y="515" class="caption">Check valves prevent backflow when one tank is depleted or disconnected</text>
</svg>