<svg xmlns="http://www.w3.org/2000/svg" viewBox="0 0 800 900" width="800" height="900">
  <style>
    text { font-family: Arial, sans-serif; font-size: 11px; }
    .label { font-size: 11px; font-weight: bold; }
    .caption { font-size: 10px; }
    .thin { stroke-width: 0.5; }
    .medium { stroke-width: 1.2; }
    .thick { stroke-width: 1.8; }
  </style>
  <text x="400" y="30" text-anchor="middle" font-size="14" font-weight="bold">FIG. 4 — Side Profile View (Harness Worn by User)</text>

  <!-- User torso side view (dashed) -->
  <path d="M350,100 Q380,90 400,100 L420,150 Q430,250 425,380 Q420,450 410,500 Q400,550 380,600 L360,620" fill="none" stroke="black" stroke-dasharray="8,4" class="medium"/>
  <!-- Back -->
  <path d="M350,100 L340,150 Q330,250 335,380 Q340,450 345,500 Q350,550 355,600 L360,620" fill="none" stroke="black" stroke-dasharray="8,4" class="medium"/>
  <!-- Leg (partial) -->
  <path d="M360,620 Q350,660 345,720 Q342,780 345,830" fill="none" stroke="black" stroke-dasharray="8,4" class="medium"/>
  <path d="M360,620 Q380,660 385,720 Q388,780 385,830" fill="none" stroke="black" stroke-dasharray="8,4" class="medium"/>

  <!-- WAIST BELT (side view) -->
  <path d="M310,390 Q335,385 365,383 Q395,382 425,385 Q440,388 450,390" fill="none" stroke="black" class="thick"/>
  <path d="M310,410 Q335,405 365,403 Q395,402 425,405 Q440,408 450,410" fill="none" stroke="black" class="thick"/>

  <!-- Neoprene padding cross-section -->
  <line x1="350" y1="387" x2="350" y2="401" stroke="gray" class="thin"/>
  <line x1="370" y1="385" x2="370" y2="400" stroke="gray" class="thin"/>
  <line x1="390" y1="384" x2="390" y2="400" stroke="gray" class="thin"/>

  <!-- TANK CRADLE (on hip) -->
  <rect x="420" y="395" width="50" height="35" rx="6" fill="none" stroke="black" class="thick"/>
  <!-- Snap lock -->
  <rect x="435" y="390" width="20" height="8" rx="2" fill="none" stroke="black" class="medium"/>

  <!-- TANK (hanging from cradle) -->
  <rect x="428" y="430" width="36" height="130" rx="18" fill="none" stroke="black" class="thick"/>
  <!-- Tank valve -->
  <rect x="438" y="418" width="16" height="14" rx="2" fill="none" stroke="black" class="medium"/>
  <!-- Tank angle ~15 degrees -->
  <text x="400" y="500" font-size="7" fill="gray">15°</text>

  <!-- THIGH STRAP -->
  <path d="M440,410 Q445,500 440,600 Q435,650 430,700 Q425,720 430,730 Q440,740 455,730 Q465,720 460,700 Q455,650 450,600 Q447,500 445,430" fill="none" stroke="black" stroke-dasharray="6,3" class="medium"/>
  <rect x="430" y="718" width="25" height="10" rx="2" fill="none" stroke="black" class="medium"/>

  <!-- BREATHING TUBE going up from manifold -->
  <path d="M446,418 Q450,380 450,350 Q450,300 445,250 Q440,200 435,160" fill="none" stroke="black" class="medium"/>
  <!-- Tube corrugation -->
  <path d="M443,300 Q455,305 443,310" fill="none" stroke="black" class="thin"/>
  <path d="M444,260 Q456,265 444,270" fill="none" stroke="black" class="thin"/>

  <!-- Profile dimension arrow showing minimal bulk -->
  <line x1="325" y1="450" x2="470" y2="450" stroke="black" class="thin"/>
  <line x1="325" y1="440" x2="325" y2="460" stroke="black" class="thin"/>
  <line x1="470" y1="440" x2="470" y2="460" stroke="black" class="thin"/>
  <text x="397" y="468" text-anchor="middle" font-size="8">~12cm profile</text>

  <!-- REFERENCE LABELS -->
  <line x1="350" y1="395" x2="290" y2="385" stroke="black" class="thin"/>
  <text x="210" y="389" class="label">102 — Belt</text>

  <line x1="445" y1="412" x2="510" y2="400" stroke="black" class="thin"/>
  <text x="515" y="404" class="label">108 — Cradle</text>

  <line x1="464" y1="500" x2="510" y2="500" stroke="black" class="thin"/>
  <text x="515" y="504" class="label">110 — Tank</text>

  <line x1="455" y1="730" x2="510" y2="740" stroke="black" class="thin"/>
  <text x="515" y="744" class="label">114 — Thigh strap</text>

  <line x1="455" y1="260" x2="510" y2="250" stroke="black" class="thin"/>
  <text x="515" y="254" class="label">140 — Breathing tube</text>

  <!-- Legend -->
  <text x="50" y="840" class="caption" font-weight="bold">Reference Numerals:</text>
  <text x="50" y="855" class="caption">102 — Waist belt  |  108 — Tank cradle  |  110 — 0.5L tank  |  114 — Thigh strap  |  140 — Breathing tube to regulator</text>
</svg>