<svg xmlns="http://www.w3.org/2000/svg" viewBox="0 0 800 900" width="800" height="900">
  <style>
    text { font-family: Arial, sans-serif; font-size: 11px; }
    .label { font-size: 11px; font-weight: bold; }
    .caption { font-size: 10px; }
    .thin { stroke-width: 0.5; }
    .medium { stroke-width: 1.2; }
    .thick { stroke-width: 1.8; }
  </style>
  <text x="400" y="30" text-anchor="middle" font-size="14" font-weight="bold">FIG. 4 — Side Profile View (Harness Worn by User)</text>

  <!-- User torso side view (dashed - not part of invention) -->
  <!-- Front of body (right side of drawing = front) -->
  <path d="M380,100 Q400,90 420,100 L440,150 Q450,250 445,380 Q440,450 430,520 Q420,570 400,620 L385,650" fill="none" stroke="black" stroke-dasharray="8,4" class="medium"/>
  <!-- Back of body -->
  <path d="M380,100 L365,150 Q355,250 358,380 Q362,450 368,520 Q372,570 378,620 L385,650" fill="none" stroke="black" stroke-dasharray="8,4" class="medium"/>
  <!-- Head (side profile) -->
  <path d="M380,100 Q395,60 420,55 Q445,55 450,75 Q450,90 440,100" fill="none" stroke="black" stroke-dasharray="8,4" class="thin"/>
  <!-- Leg (partial, upper thigh) -->
  <path d="M385,650 Q375,690 372,740 Q370,790 372,840" fill="none" stroke="black" stroke-dasharray="8,4" class="medium"/>
  <path d="M385,650 Q400,690 403,740 Q405,790 403,840" fill="none" stroke="black" stroke-dasharray="8,4" class="medium"/>

  <!-- WAIST BELT (side view — wraps around torso) -->
  <!-- Belt shown as two lines wrapping from front to back -->
  <path d="M340,390 Q365,385 390,383 Q415,382 440,384 Q455,387 465,390" fill="none" stroke="black" class="thick"/>
  <path d="M340,412 Q365,407 390,405 Q415,404 440,406 Q455,409 465,412" fill="none" stroke="black" class="thick"/>
  <!-- Belt end wrapping behind body -->
  <path d="M340,390 Q330,394 330,401 Q330,408 340,412" fill="none" stroke="black" class="thick"/>
  <!-- Belt end at front -->
  <path d="M465,390 Q475,394 475,401 Q475,408 465,412" fill="none" stroke="black" class="thick"/>

  <!-- Neoprene padding (cross-section marks on belt interior) -->
  <line x1="370" y1="388" x2="370" y2="404" stroke="gray" class="thin"/>
  <line x1="390" y1="386" x2="390" y2="403" stroke="gray" class="thin"/>
  <line x1="410" y1="385" x2="410" y2="403" stroke="gray" class="thin"/>

  <!-- FABRIC WEBBING LOOP CRADLE (hanging from front of belt, at hip) -->
  <!-- Side view: shows the fabric loop as a narrow profile hanging down -->
  <path d="M450,406 L450,420 L450,550 Q450,565 458,565 L468,565 Q476,565 476,550 L476,420 L476,406" fill="none" stroke="black" class="thick"/>
  <!-- Fabric stitching texture -->
  <line x1="453" y1="425" x2="453" y2="550" stroke="gray" class="thin" stroke-dasharray="3,2"/>
  <line x1="473" y1="425" x2="473" y2="550" stroke="gray" class="thin" stroke-dasharray="3,2"/>
  <!-- Stitch reinforcement at belt attachment -->
  <line x1="450" y1="408" x2="476" y2="408" stroke="black" class="thin"/>
  <line x1="450" y1="411" x2="476" y2="411" stroke="black" class="thin"/>

  <!-- TANKS (two side-by-side, seen from side — one visible, second peeking behind) -->
  <!-- Front tank (fully visible in side view) -->
  <rect x="452" y="425" width="22" height="130" rx="11" fill="none" stroke="black" class="thick"/>
  <!-- Tank valve on top -->
  <rect x="456" y="415" width="14" height="12" rx="2" fill="none" stroke="black" class="medium"/>
  <!-- Pressure gauge (side view — small circle) -->
  <circle cx="463" cy="419" r="4" fill="none" stroke="black" class="thin"/>
  <line x1="463" y1="417" x2="465" y2="415" stroke="black" class="thin"/>
  <!-- Second tank partially visible behind (offset slightly) -->
  <rect x="458" y="427" width="22" height="130" rx="11" fill="none" stroke="black" class="medium" stroke-dasharray="4,2"/>

  <!-- Y-VALVE (seen from side — compact junction piece on tank tops) -->
  <ellipse cx="467" cy="413" rx="8" ry="5" fill="none" stroke="black" class="medium"/>

  <!-- BREATHING TUBE from Y-valve going up along body to mouth -->
  <path d="M467,408 Q470,380 470,350 Q468,300 462,250 Q455,200 448,160 Q445,130 445,105" fill="none" stroke="black" class="medium"/>
  <!-- Tube rings -->
  <ellipse cx="468" cy="310" rx="4" ry="2" fill="none" stroke="black" class="thin"/>
  <ellipse cx="460" cy="250" rx="4" ry="2" fill="none" stroke="black" class="thin"/>
  <ellipse cx="450" cy="180" rx="4" ry="2" fill="none" stroke="black" class="thin"/>
  <!-- Mouthpiece (side view at mouth) -->
  <ellipse cx="445" cy="103" rx="6" ry="4" fill="none" stroke="black" class="medium"/>

  <!-- STABILIZER STRAP (wraps around upper thigh below tanks) -->
  <path d="M445,415 Q440,500 438,580 Q435,630 438,670 Q442,690 455,695 Q470,695 478,685 Q482,660 480,580 Q478,500 476,415" fill="none" stroke="black" stroke-dasharray="6,3" class="medium"/>
  <!-- Stabilizer buckle -->
  <rect x="448" y="684" width="20" height="9" rx="2" fill="none" stroke="black" class="medium"/>

  <!-- Profile dimension arrow showing minimal bulk from body -->
  <line x1="350" y1="480" x2="490" y2="480" stroke="black" class="thin"/>
  <line x1="350" y1="470" x2="350" y2="490" stroke="black" class="thin"/>
  <line x1="490" y1="470" x2="490" y2="490" stroke="black" class="thin"/>
  <text x="420" y="498" text-anchor="middle" font-size="8">~12cm profile</text>

  <!-- REFERENCE LABELS -->
  <line x1="370" y1="400" x2="300" y2="390" stroke="black" class="thin"/>
  <text x="220" y="394" class="label">102 — Belt</text>

  <line x1="476" y1="470" x2="530" y2="460" stroke="black" class="thin"/>
  <text x="535" y="464" class="label">108 — Cradle</text>

  <line x1="474" y1="510" x2="530" y2="510" stroke="black" class="thin"/>
  <text x="535" y="514" class="label">110 — Tank</text>

  <line x1="478" y1="690" x2="530" y2="700" stroke="black" class="thin"/>
  <text x="535" y="704" class="label">114 — Thigh strap</text>

  <line x1="462" y1="250" x2="520" y2="240" stroke="black" class="thin"/>
  <text x="525" y="244" class="label">140 — Tube</text>

  <line x1="467" y1="413" x2="520" y2="413" stroke="black" class="thin"/>
  <text x="525" y="417" class="label">112 — Y-valve</text>

  <!-- Legend -->
  <text x="50" y="840" class="caption" font-weight="bold">Reference Numerals:</text>
  <text x="50" y="855" class="caption">102 — Waist belt  |  108 — Tank cradle (webbing loop)  |  110 — 0.5L tank  |  112 — Y-valve manifold  |  114 — Thigh strap  |  140 — Breathing tube</text>
</svg>