<svg xmlns="http://www.w3.org/2000/svg" viewBox="0 0 800 1100" width="800" height="1100">
  <style>text{font-family:Arial,sans-serif}.label{font-size:12px;font-weight:bold}.caption{font-size:10px}.t{stroke-width:0.5}.m{stroke-width:1.2}.k{stroke-width:2.0}.leader{stroke-width:0.4}</style>
  <text x="400" y="25" text-anchor="middle" font-size="14" font-weight="bold">FIG. 2</text>

  <!-- Camera mount bracket (top, separated) -->
  <rect x="375" y="50" width="50" height="18" rx="4" fill="none" stroke="black" class="k"/>
  <line x1="390" y1="50" x2="390" y2="40" stroke="black" class="m"/>
  <line x1="410" y1="50" x2="410" y2="40" stroke="black" class="m"/>
  <rect x="385" y="32" width="30" height="10" rx="2" fill="none" stroke="black" class="m"/>
  <line x1="400" y1="68" x2="400" y2="95" stroke="black" stroke-dasharray="6,3" class="t"/>

  <!-- Helmet shell (dome) -->
  <path d="M400,110 C490,110 545,150 560,220 C575,290 575,350 560,400 C545,450 510,490 470,510 C445,522 420,527 400,528 C380,527 355,522 330,510 C290,490 255,450 240,400 C225,350 225,290 240,220 C255,150 310,110 400,110 Z" fill="none" stroke="black" class="k"/>

  <!-- Visor (separated forward) -->
  <path d="M400,565 C480,565 530,600 545,655 C555,700 555,750 548,795 C540,835 518,870 488,895 C463,910 432,918 400,920 C368,918 337,910 312,895 C282,870 260,835 252,795 C245,750 245,700 255,655 C270,600 320,565 400,565 Z" fill="none" stroke="black" class="k"/>
  <line x1="400" y1="528" x2="400" y2="565" stroke="black" stroke-dasharray="6,3" class="t"/>

  <!-- Face seal (dashed — soft material, separated below visor) -->
  <path d="M400,945 C455,945 490,965 500,990 C508,1010 505,1030 495,1045 C480,1060 450,1070 420,1075 C407,1077 393,1077 380,1075 C350,1070 320,1060 305,1045 C295,1030 292,1010 300,990 C310,965 345,945 400,945 Z" fill="none" stroke="black" stroke-dasharray="6,3" class="m"/>
  <line x1="400" y1="920" x2="400" y2="945" stroke="black" stroke-dasharray="6,3" class="t"/>

  <!-- Mouthpiece assembly (separated left) -->
  <rect x="80" y="400" width="100" height="30" rx="6" fill="none" stroke="black" class="m"/>
  <rect x="105" y="410" width="30" height="12" rx="4" fill="none" stroke="black" class="m"/>
  <line x1="130" y1="430" x2="130" y2="450" stroke="black" class="m"/>
  <rect x="120" y="450" width="20" height="15" rx="2" fill="none" stroke="black" class="m"/>
  <line x1="180" y1="415" x2="240" y2="350" stroke="black" stroke-dasharray="6,3" class="t"/>

  <!-- Magnetic strap assemblies (separated left) -->
  <path d="M80,220 L160,220 Q170,220 170,230 L170,250 Q170,260 160,260 L80,260 Q70,260 70,250 L70,230 Q70,220 80,220 Z" fill="none" stroke="black" class="m"/>
  <circle cx="155" cy="240" r="10" fill="none" stroke="black" class="k"/>
  <circle cx="155" cy="240" r="5" fill="none" stroke="black" class="m"/>
  <line x1="170" y1="240" x2="240" y2="240" stroke="black" stroke-dasharray="6,3" class="t"/>

  <!-- Tank with gauge (separated right) -->
  <rect x="660" y="160" width="45" height="150" rx="22" fill="none" stroke="black" class="k"/>
  <circle cx="682" cy="150" r="14" fill="none" stroke="black" class="m"/>
  <line x1="682" y1="142" x2="682" y2="150" stroke="black" class="t"/>
  <line x1="682" y1="150" x2="688" y2="146" stroke="black" class="t"/>
  <rect x="670" y="148" width="24" height="18" rx="3" fill="none" stroke="black" class="m"/>

  <!-- Tank cradle bracket (separated right) -->
  <path d="M610,220 C620,210 630,215 630,230 L630,330 C630,345 620,350 610,340 Z" fill="none" stroke="black" class="k"/>
  <path d="M630,240 L645,240" fill="none" stroke="black" class="m"/>
  <path d="M630,310 L645,310" fill="none" stroke="black" class="m"/>
  <line x1="560" y1="280" x2="610" y2="280" stroke="black" stroke-dasharray="6,3" class="t"/>

  <!-- Bulkhead fitting (separated right) -->
  <rect x="620" y="410" width="50" height="35" rx="5" fill="none" stroke="black" class="k"/>
  <circle cx="645" cy="427" r="8" fill="none" stroke="black" class="m"/>
  <line x1="555" y1="380" x2="620" y2="410" stroke="black" stroke-dasharray="6,3" class="t"/>

  <!-- Diffuser plate (separated below) -->
  <rect x="355" y="1060" width="90" height="16" rx="5" fill="none" stroke="black" class="k"/>
  <circle cx="370" cy="1068" r="2" fill="black"/>
  <circle cx="385" cy="1068" r="2" fill="black"/>
  <circle cx="400" cy="1068" r="2" fill="black"/>
  <circle cx="415" cy="1068" r="2" fill="black"/>
  <circle cx="430" cy="1068" r="2" fill="black"/>
  <line x1="400" y1="1040" x2="400" y2="1060" stroke="black" stroke-dasharray="6,3" class="t"/>

  <!-- REFERENCE LABELS (numbers only) -->
  <line x1="560" y1="220" x2="580" y2="150" stroke="black" class="leader"/>
  <text x="555" y="142" class="label">200</text>

  <line x1="530" y1="750" x2="560" y2="740" stroke="black" class="leader"/>
  <text x="565" y="744" class="label">202</text>

  <line x1="413" y1="44" x2="435" y2="38" stroke="black" class="leader"/>
  <text x="440" y="42" class="label">204</text>

  <line x1="705" y1="235" x2="730" y2="230" stroke="black" class="leader"/>
  <text x="735" y="234" class="label">206</text>

  <line x1="670" y1="427" x2="700" y2="420" stroke="black" class="leader"/>
  <text x="705" y="424" class="label">208</text>

  <line x1="70" y1="240" x2="40" y2="235" stroke="black" class="leader"/>
  <text x="15" y="239" class="label">210</text>

  <line x1="445" y1="1068" x2="475" y2="1065" stroke="black" class="leader"/>
  <text x="480" y="1069" class="label">212</text>

  <line x1="630" y1="280" x2="595" y2="275" stroke="black" class="leader"/>
  <text x="555" y="279" class="label">216</text>

  <line x1="500" y1="1010" x2="530" y2="1005" stroke="black" class="leader"/>
  <text x="535" y="1009" class="label">218</text>

  <line x1="682" y1="138" x2="720" y2="130" stroke="black" class="leader"/>
  <text x="725" y="134" class="label">242</text>

  <line x1="80" y1="415" x2="50" y2="410" stroke="black" class="leader"/>
  <text x="15" y="414" class="label">252</text>

  <text x="50" y="1095" class="caption" font-weight="bold">Components shown separated along assembly axis. Tank mounts to right side of dome shell via cradle bracket.</text>
</svg>