<svg xmlns="http://www.w3.org/2000/svg" viewBox="0 0 800 600" width="800" height="600">
  <style>text{font-family:Arial,sans-serif}.label{font-size:12px;font-weight:bold}.caption{font-size:10px}.t{stroke-width:0.5}.m{stroke-width:1.2}.k{stroke-width:2.0}.h{stroke-width:0.4;stroke:gray}.leader{stroke-width:0.4}</style>
  <text x="400" y="25" text-anchor="middle" font-size="14" font-weight="bold">FIG. 4</text>

  <!-- STATE A: ATTACHED -->
  <text x="200" y="60" text-anchor="middle" font-size="12" font-weight="bold">(a)</text>

  <!-- Shell wall section (curved) -->
  <path d="M130,95 C160,90 240,88 270,95 L270,130 C240,125 160,125 130,130 Z" fill="none" stroke="black" class="k"/>
  <!-- Shell hatching -->
  <line x1="135" y1="100" x2="145" y2="112" class="h"/>
  <line x1="150" y1="99" x2="160" y2="112" class="h"/>
  <line x1="170" y1="98" x2="180" y2="112" class="h"/>
  <line x1="220" y1="98" x2="230" y2="112" class="h"/>
  <line x1="240" y1="99" x2="250" y2="112" class="h"/>
  <line x1="255" y1="100" x2="265" y2="112" class="h"/>

  <!-- Receiver plate (recessed in shell) -->
  <path d="M170,118 C185,116 215,116 230,118 L230,130 C215,128 185,128 170,130 Z" fill="none" stroke="black" class="k"/>
  <!-- Steel plate hatching -->
  <line x1="175" y1="120" x2="180" y2="128" class="h"/>
  <line x1="185" y1="119" x2="190" y2="127" class="h"/>
  <line x1="195" y1="119" x2="200" y2="127" class="h"/>
  <line x1="205" y1="119" x2="210" y2="127" class="h"/>
  <line x1="215" y1="119" x2="220" y2="127" class="h"/>

  <!-- Magnetic puck (attached to plate) -->
  <rect x="168" y="130" width="64" height="20" rx="6" fill="none" stroke="black" class="k"/>
  <!-- N52 magnet inside -->
  <rect x="180" y="134" width="40" height="12" rx="2" fill="none" stroke="black" class="m"/>

  <!-- Silicone encapsulation (dashed) -->
  <path d="M172,132 Q168,135 168,140 Q168,148 172,150" fill="none" stroke="black" stroke-dasharray="3,2" class="t"/>
  <path d="M228,132 Q232,135 232,140 Q232,148 228,150" fill="none" stroke="black" stroke-dasharray="3,2" class="t"/>

  <!-- Strap webbing -->
  <rect x="145" y="140" width="23" height="8" rx="1" fill="none" stroke="black" class="m"/>
  <rect x="232" y="140" width="23" height="8" rx="1" fill="none" stroke="black" class="m"/>
  <line x1="120" y1="144" x2="145" y2="144" stroke="black" class="m"/>
  <line x1="255" y1="144" x2="280" y2="144" stroke="black" class="m"/>

  <!-- Magnetic field lines (dashed) -->
  <path d="M185,130 Q180,125 185,120" fill="none" stroke="gray" stroke-dasharray="2,2" class="t"/>
  <path d="M200,130 Q200,122 200,118" fill="none" stroke="gray" stroke-dasharray="2,2" class="t"/>
  <path d="M215,130 Q220,125 215,120" fill="none" stroke="gray" stroke-dasharray="2,2" class="t"/>

  <!-- STATE B: SEPARATED -->
  <text x="600" y="60" text-anchor="middle" font-size="12" font-weight="bold">(b)</text>

  <!-- Shell wall section -->
  <path d="M530,95 C560,90 640,88 670,95 L670,130 C640,125 560,125 530,130 Z" fill="none" stroke="black" class="k"/>
  <line x1="535" y1="100" x2="545" y2="112" class="h"/>
  <line x1="550" y1="99" x2="560" y2="112" class="h"/>
  <line x1="570" y1="98" x2="580" y2="112" class="h"/>
  <line x1="620" y1="98" x2="630" y2="112" class="h"/>
  <line x1="635" y1="99" x2="645" y2="112" class="h"/>
  <line x1="650" y1="100" x2="660" y2="112" class="h"/>

  <!-- Receiver plate still in shell -->
  <path d="M570,118 C585,116 615,116 630,118 L630,130 C615,128 585,128 570,130 Z" fill="none" stroke="black" class="k"/>
  <line x1="575" y1="120" x2="580" y2="128" class="h"/>
  <line x1="585" y1="119" x2="590" y2="127" class="h"/>
  <line x1="595" y1="119" x2="600" y2="127" class="h"/>
  <line x1="605" y1="119" x2="610" y2="127" class="h"/>
  <line x1="615" y1="119" x2="620" y2="127" class="h"/>

  <!-- Magnetic puck (pulled away) -->
  <rect x="568" y="200" width="64" height="20" rx="6" fill="none" stroke="black" class="k"/>
  <rect x="580" y="204" width="40" height="12" rx="2" fill="none" stroke="black" class="m"/>

  <!-- Strap pulled away -->
  <rect x="545" y="208" width="23" height="8" rx="1" fill="none" stroke="black" class="m"/>
  <rect x="632" y="208" width="23" height="8" rx="1" fill="none" stroke="black" class="m"/>
  <line x1="520" y1="212" x2="545" y2="212" stroke="black" class="m"/>
  <line x1="655" y1="212" x2="680" y2="212" stroke="black" class="m"/>

  <!-- Pull direction arrow -->
  <line x1="600" y1="155" x2="600" y2="195" stroke="black" class="m"/>
  <path d="M595,190 L600,200 L605,190" fill="none" stroke="black" class="m"/>

  <!-- Separation gap lines -->
  <line x1="560" y1="130" x2="560" y2="200" stroke="gray" stroke-dasharray="4,4" class="t"/>
  <line x1="640" y1="130" x2="640" y2="200" stroke="gray" stroke-dasharray="4,4" class="t"/>

  <!-- REFERENCE LABELS (numbers only) -->
  <line x1="130" y1="112" x2="100" y2="107" stroke="black" class="leader"/>
  <text x="70" y="111" class="label">228</text>

  <line x1="170" y1="124" x2="115" y2="130" stroke="black" class="leader"/>
  <text x="80" y="134" class="label">230</text>

  <line x1="168" y1="140" x2="115" y2="150" stroke="black" class="leader"/>
  <text x="80" y="154" class="label">232</text>

  <line x1="170" y1="142" x2="115" y2="170" stroke="black" class="leader"/>
  <text x="80" y="174" class="label">234</text>

  <line x1="255" y1="144" x2="290" y2="148" stroke="black" class="leader"/>
  <text x="295" y="152" class="label">236</text>

  <text x="50" y="290" class="caption" font-weight="bold">Reference Numerals:</text>
  <text x="50" y="305" class="caption">228 — Shell wall  |  230 — Ferromagnetic receiver plate  |  232 — Magnetic puck (N52 neodymium)</text>
  <text x="50" y="320" class="caption">234 — Silicone encapsulation  |  236 — Strap webbing</text>
  <text x="50" y="340" class="caption">(a) Attached: puck snaps to receiver plate (3-5 kg pull force)  (b) Separated: perpendicular pull releases</text>
</svg>