<svg xmlns="http://www.w3.org/2000/svg" viewBox="0 0 800 700" width="800" height="700">
  <defs>
    <marker id="a5" markerWidth="8" markerHeight="6" refX="8" refY="3" orient="auto">
      <path d="M0,0 L8,3 L0,6" fill="none" stroke="black" stroke-width="0.8"/>
    </marker>
  </defs>
  <style>text{font-family:Arial,sans-serif}.label{font-size:12px;font-weight:bold}.caption{font-size:10px}.t{stroke-width:0.5}.m{stroke-width:1.2}.k{stroke-width:2.0}.h{stroke-width:0.4;stroke:gray}.leader{stroke-width:0.4}</style>
  <text x="400" y="25" text-anchor="middle" font-size="14" font-weight="bold">FIG. 5</text>

  <!-- Chin chamber cross-section -->
  <path d="M220,150 C220,150 215,300 230,330 C245,345 350,350 400,350 C450,350 555,345 570,330 C585,300 580,150 580,150" fill="none" stroke="black" class="k"/>
  <!-- Chamber wall hatching -->
  <line x1="222" y1="160" x2="230" y2="175" class="h"/>
  <line x1="220" y1="210" x2="228" y2="225" class="h"/>
  <line x1="218" y1="260" x2="226" y2="275" class="h"/>
  <line x1="574" y1="160" x2="582" y2="175" class="h"/>
  <line x1="576" y1="210" x2="584" y2="225" class="h"/>
  <line x1="578" y1="260" x2="586" y2="275" class="h"/>

  <!-- Exhaled air arrows entering from above -->
  <line x1="350" y1="100" x2="350" y2="145" stroke="black" class="m" marker-end="url(#a5)"/>
  <line x1="400" y1="90" x2="400" y2="145" stroke="black" class="m" marker-end="url(#a5)"/>
  <line x1="450" y1="100" x2="450" y2="145" stroke="black" class="m" marker-end="url(#a5)"/>

  <!-- DIFFUSER PLATE cross-section -->
  <path d="M240,350 C300,355 500,355 560,350 L560,370 C500,375 300,375 240,370 Z" fill="none" stroke="black" class="k"/>
  <!-- Plate material hatching (PA66-GF30) -->
  <line x1="245" y1="353" x2="252" y2="367" class="h"/>
  <line x1="260" y1="354" x2="267" y2="368" class="h"/>
  <line x1="275" y1="354" x2="282" y2="368" class="h"/>
  <line x1="520" y1="354" x2="527" y2="368" class="h"/>
  <line x1="535" y1="354" x2="542" y2="368" class="h"/>
  <line x1="550" y1="353" x2="557" y2="367" class="h"/>

  <!-- Diffuser holes (through plate) -->
  <rect x="285" y="350" width="4" height="20" fill="white" stroke="black" class="m"/>
  <rect x="315" y="350" width="4" height="20" fill="white" stroke="black" class="m"/>
  <rect x="345" y="350" width="4" height="20" fill="white" stroke="black" class="m"/>
  <rect x="375" y="350" width="4" height="20" fill="white" stroke="black" class="m"/>
  <rect x="398" y="350" width="4" height="20" fill="white" stroke="black" class="m"/>
  <rect x="425" y="350" width="4" height="20" fill="white" stroke="black" class="m"/>
  <rect x="455" y="350" width="4" height="20" fill="white" stroke="black" class="m"/>
  <rect x="485" y="350" width="4" height="20" fill="white" stroke="black" class="m"/>
  <rect x="515" y="350" width="4" height="20" fill="white" stroke="black" class="m"/>

  <!-- Mushroom valve -->
  <path d="M250,348 Q245,340 250,335 Q260,330 270,335 Q275,340 270,348" fill="none" stroke="black" class="k"/>
  <line x1="260" y1="335" x2="260" y2="348" stroke="black" class="m"/>

  <!-- Flow arrows through holes -->
  <line x1="287" y1="345" x2="287" y2="378" stroke="black" class="t" marker-end="url(#a5)"/>
  <line x1="377" y1="345" x2="377" y2="378" stroke="black" class="t" marker-end="url(#a5)"/>
  <line x1="457" y1="345" x2="457" y2="378" stroke="black" class="t" marker-end="url(#a5)"/>
  <line x1="517" y1="345" x2="517" y2="378" stroke="black" class="t" marker-end="url(#a5)"/>

  <!-- Tiny bubbles exiting -->
  <circle cx="290" cy="400" r="3" fill="none" stroke="black" class="m"/>
  <circle cx="305" cy="410" r="2" fill="none" stroke="black" class="m"/>
  <circle cx="320" cy="405" r="2.5" fill="none" stroke="black" class="m"/>
  <circle cx="345" cy="402" r="3" fill="none" stroke="black" class="m"/>
  <circle cx="360" cy="415" r="2" fill="none" stroke="black" class="m"/>
  <circle cx="380" cy="398" r="2.5" fill="none" stroke="black" class="m"/>
  <circle cx="400" cy="408" r="3" fill="none" stroke="black" class="m"/>
  <circle cx="420" cy="395" r="2" fill="none" stroke="black" class="m"/>
  <circle cx="440" cy="412" r="2.5" fill="none" stroke="black" class="m"/>
  <circle cx="460" cy="400" r="3" fill="none" stroke="black" class="m"/>
  <circle cx="480" cy="410" r="2" fill="none" stroke="black" class="m"/>
  <circle cx="500" cy="403" r="2.5" fill="none" stroke="black" class="m"/>
  <circle cx="520" cy="405" r="2" fill="none" stroke="black" class="m"/>

  <!-- Lateral dispersion arrows -->
  <path d="M270,405 Q240,410 220,420" fill="none" stroke="black" class="t" marker-end="url(#a5)"/>
  <path d="M540,405 Q570,410 590,420" fill="none" stroke="black" class="t" marker-end="url(#a5)"/>

  <!-- REFERENCE LABELS (numbers only) -->
  <line x1="580" y1="200" x2="615" y2="175" stroke="black" class="leader"/>
  <text x="620" y="179" class="label">238</text>

  <line x1="560" y1="360" x2="615" y2="360" stroke="black" class="leader"/>
  <text x="620" y="364" class="label">212</text>

  <line x1="250" y1="342" x2="200" y2="340" stroke="black" class="leader"/>
  <text x="155" y="344" class="label">224</text>

  <line x1="525" y1="405" x2="570" y2="405" stroke="black" class="leader"/>
  <text x="575" y="409" class="label">226</text>

  <line x1="500" y1="360" x2="540" y2="350" stroke="black" class="leader"/>
  <text x="545" y="348" class="label">240</text>

  <text x="50" y="510" class="caption" font-weight="bold">Reference Numerals:</text>
  <text x="50" y="525" class="caption">212 — Diffuser plate (PA66-GF30)  |  224 — Mushroom valve (one-way)  |  226 — Dispersed bubbles</text>
  <text x="50" y="540" class="caption">238 — Chin chamber (~150 mL)  |  240 — Diffuser holes (2-3mm diameter, 9+ ports)</text>
</svg>